<svg xmlns="http://www.w3.org/2000/svg" viewBox="0 0 420 420">
  <defs>
    <linearGradient id="shadow" x1="0" y1="0" x2="1" y2="1">
      <stop offset="0%" stop-color="#ff752f" />
      <stop offset="100%" stop-color="#ff5400" />
    </linearGradient>
  </defs>
  <rect width="420" height="420" rx="210" fill="#0d0d0f" />
  <path d="M95 120h210l-40 120 40 120H95z" fill="url(#shadow)" />
  <path
    d="M169 157c28 3 46 20 58 37 17-7 33-12 46-14-7 16-15 33-25 52l37 48c-24 10-49 18-72 25-16-39-28-67-37-83a150 150 0 0 0-37-47c6-10 16-18 30-18z"
    fill="#0d0d0f"
  />
  <path
    d="M280 183c24 4 44 29 44 62 0 36-26 64-60 64-11 0-21-3-30-9l18-44 39-73c-2 0-6 0-11 0z"
    fill="#0d0d0f"
    opacity="0.25"
  />
  <text
    x="210"
    y="330"
    text-anchor="middle"
    font-family="'Montserrat', sans-serif"
    font-size="54"
    font-weight="700"
    fill="#ff752f"
    letter-spacing="8"
  >
    MACAÉ
  </text>
  <text
    x="210"
    y="292"
    text-anchor="middle"
    font-family="'Montserrat', sans-serif"
    font-size="28"
    font-weight="700"
    fill="#f6f1e6"
    letter-spacing="6"
  >
    LEGENDÁRIOS
  </text>
</svg>

